<svg id="Layer_1" data-name="Layer 1" xmlns="http://www.w3.org/2000/svg" xmlns:xlink="http://www.w3.org/1999/xlink" viewBox="0 0 236.88 298.15"><defs><style>.cls-1{fill:#232162;stroke-miterlimit:10;stroke:url(#linear-gradient);}.cls-2{fill:#3b2979;}</style><linearGradient id="linear-gradient" x1="179.51" y1="474.84" x2="416.4" y2="474.84" gradientUnits="userSpaceOnUse"><stop offset="0" stop-color="#fff"/><stop offset="1"/></linearGradient></defs><path class="cls-1" d="M181.23,420l36.49,129.61c3.35,11.88,16.13,20.29,30.56,20.29H348.46c15.21,0,29.07-9.33,32.39-22l34-130.08c5.19-19.85-9.13-37.95-30.71-37.95H213.47C190.89,379.8,175.46,399.49,181.23,420Z" transform="translate(-179.51 -272.22)"/><path class="cls-2" d="M394.91,367.68c1.28-39.3-23.22-74.18-59.4-88.59-38.68-15.41-84.58-4.31-111.68,27.45a95.07,95.07,0,0,0-22.9,61.14c-.06,7.73,11.94,7.73,12,0,.28-35.72,24.09-67.36,57.77-78.86,33.91-11.57,73.62-1,95.85,27.57a79.15,79.15,0,0,1,16.36,51.29c-.25,7.73,11.75,7.72,12,0Z" transform="translate(-179.51 -272.22)"/></svg>