<svg id="Layer_1" data-name="Layer 1" xmlns="http://www.w3.org/2000/svg" viewBox="0 0 277.31 237.45"><defs><style>.cls-1{fill:none;stroke:#231f20;stroke-miterlimit:10;}.cls-2{fill:#3b2979;}</style></defs><path class="cls-1" d="M807,17" transform="translate(-151.72 -183.49)"/><path class="cls-2" d="M287.73,252a21.07,21.07,0,0,1,4-6.46c11.19-12.29,37-38.79,52.56-54.76,7.43-7.59,19.68-9.51,29.49-4.62l42.8,21.35c8.95,4.47,13.79,13.6,12,22.72L415.08,301a21,21,0,0,1-5.67,10.67l-113,105.37c-14.62,14.94-10.1-16.79-10.1-36.75v-121a19.89,19.89,0,0,1,1.4-7.32" transform="translate(-151.72 -183.49)"/><path class="cls-2" d="M286.58,245.05c-11-12.19-36.31-38.47-51.65-54.31-7.3-7.53-19.34-9.43-29-4.58l-42,21.18c-8.8,4.43-13.55,13.48-11.83,22.53l13.35,70.2A20.82,20.82,0,0,0,171,310.65L284.75,417.28c14.36,14.82,7.19-18.77,7.19-38.57v-120A20.39,20.39,0,0,0,286.58,245.05Z" transform="translate(-151.72 -183.49)"/></svg>