<?xml version="1.0" standalone="no"?>
<!DOCTYPE svg PUBLIC "-//W3C//DTD SVG 20010904//EN"
 "http://www.w3.org/TR/2001/REC-SVG-20010904/DTD/svg10.dtd">
<svg version="1.0" xmlns="http://www.w3.org/2000/svg"
 width="327.000000pt" height="110.000000pt" viewBox="0 0 327.000000 110.000000"
 preserveAspectRatio="xMidYMid meet">

<g transform="translate(0.000000,110.000000) scale(0.100000,-0.100000)"
fill="#000000" stroke="none">
<path d="M1212 810 c-45 -43 -23 -264 48 -484 22 -66 46 -131 55 -143 49 -70
205 -16 276 95 28 43 30 53 27 114 -3 55 -8 72 -28 93 -39 42 -78 58 -127 52
-79 -9 -94 -28 -121 -152 l-8 -40 -18 33 c-34 65 -57 184 -63 320 -3 72 -9
132 -13 132 -3 0 -16 -9 -28 -20z m331 -370 c37 -43 41 -66 20 -102 -23 -40
-100 -96 -143 -105 l-33 -6 6 61 c8 76 32 137 65 162 34 28 56 25 85 -10z"/>
<path d="M655 770 c-14 -16 -19 -49 -26 -162 -13 -220 -17 -244 -46 -278 -13
-17 -29 -30 -35 -30 -12 0 -61 106 -103 225 -24 67 -38 91 -52 93 -37 6 -55
-31 -70 -145 -19 -141 -31 -188 -55 -210 -20 -17 -21 -17 -37 6 -24 36 -56
118 -87 223 -34 119 -54 160 -74 155 -35 -7 7 -248 65 -370 28 -61 77 -115
112 -123 48 -12 84 53 119 214 26 121 53 108 104 -51 43 -134 154 -125 195 17
36 124 50 438 21 449 -8 3 -22 -3 -31 -13z"/>
<path d="M1840 741 c-96 -29 -160 -101 -160 -179 0 -58 44 -93 160 -128 97
-29 140 -59 140 -97 0 -31 -30 -56 -112 -96 -64 -30 -88 -57 -73 -81 19 -30
132 14 198 78 112 108 86 167 -97 223 -159 48 -193 94 -123 164 30 30 140 75
183 75 27 0 14 26 -19 38 -37 13 -60 14 -97 3z"/>
<path d="M2130 710 c-15 -29 -42 -356 -34 -425 8 -76 30 -124 60 -131 37 -9
47 4 40 54 -13 97 27 162 100 162 66 0 84 -30 84 -136 0 -46 4 -84 8 -84 5 0
17 6 28 14 16 12 19 27 19 93 -1 117 -36 168 -123 180 -82 11 -152 -39 -152
-109 0 -16 -5 -28 -10 -28 -11 0 -10 14 12 140 7 36 12 103 12 150 1 123 -17
171 -44 120z"/>
<path d="M863 581 c-138 -63 -149 -324 -16 -398 51 -29 101 -37 179 -28 48 5
72 13 92 31 26 24 27 24 7 39 -14 11 -29 13 -55 8 -19 -5 -73 -8 -118 -8 -77
0 -85 2 -104 25 l-20 25 43 6 c102 12 179 94 179 189 0 107 -84 157 -187 111z
m111 -73 c33 -47 8 -112 -53 -137 -63 -27 -99 0 -87 64 15 79 104 125 140 73z"/>
<path d="M2942 573 c-48 -24 -66 -64 -59 -137 6 -67 63 -283 99 -373 23 -57
24 -58 66 -61 23 -2 42 -1 42 3 0 3 -18 34 -39 68 -65 103 -65 103 28 195 89
88 111 127 111 201 0 43 -4 53 -30 75 -55 46 -156 60 -218 29z m171 -71 c35
-31 8 -113 -58 -170 -49 -43 -82 -42 -101 3 -33 80 -8 177 49 188 34 7 90 -4
110 -21z"/>
<path d="M2647 523 c-57 -19 -128 -79 -151 -127 -9 -19 -16 -59 -16 -94 0
-125 92 -185 206 -133 152 69 203 243 100 346 -29 29 -68 32 -139 8z m122 -79
c41 -91 -51 -224 -155 -224 -50 0 -74 25 -74 76 0 62 146 191 199 177 10 -3
24 -16 30 -29z"/>
</g>
</svg>
